<svg xmlns="http://www.w3.org/2000/svg" width="113.049" height="131.923" viewBox="0 0 113.049 131.923">
  <g id="noun_Fabric_3969087" transform="translate(-9.2 -2.5)">
    <g id="Group_63" data-name="Group 63" transform="translate(9.2 2.5)">
      <path id="Path_26" data-name="Path 26" d="M84.049,100.818l-3.888-5.694L75.995,99.29H63.636L75.3,87.625a17.013,17.013,0,0,1-2.222-4.86L56.415,99.29h-12.5L73.079,70.267A18.717,18.717,0,0,1,75.023,66.1a6.06,6.06,0,0,1,5.138-2.916h0L94.048,49.3V61.657l-7.082,7.082,2.916,4.3,4.166-4.166V79.154l2.361,3.472,2.777-4.166V36.383a2.489,2.489,0,0,0-2.5-2.5h-51.1V20.692a18.192,18.192,0,1,0-36.383,0V86.1a18.254,18.254,0,0,0,18.192,18.192H81.55ZM45.583,38.883H57.942L45.583,51.242Zm0,19.58,19.58-19.58h12.5L45.722,70.822V58.463Zm0,27.773V78.043l39.16-39.16h9.165v3.194L44.889,91.236A20.654,20.654,0,0,0,45.583,86.237ZM27.392,99.29A13.192,13.192,0,1,1,40.584,86.1,13.186,13.186,0,0,1,27.392,99.29Z" transform="translate(-9.2 -2.5)" fill="#fff"/>
      <path id="Path_27" data-name="Path 27" d="M24.088,58.1a6.388,6.388,0,1,0,6.388,6.388A6.461,6.461,0,0,0,24.088,58.1Z" transform="translate(-5.896 19.11)" fill="#fff"/>
      <path id="Path_28" data-name="Path 28" d="M94.46,93.782a5.21,5.21,0,0,0-1.389.139L85.295,82.395,95.71,66.842a15.454,15.454,0,0,0,.417-16.525.907.907,0,0,0-1.528,0L79.324,73.23,63.77,50.317a.908.908,0,0,0-1.528,0,15.454,15.454,0,0,0,.417,16.525L73.075,82.395,65.3,93.921c-.417,0-.833-.139-1.389-.139a11.109,11.109,0,1,0,11.109,11.109,12.057,12.057,0,0,0-1.389-5.416l5.416-8.054,5.416,8.054a11.606,11.606,0,0,0-1.389,5.416,11.109,11.109,0,0,0,22.219,0A10.736,10.736,0,0,0,94.46,93.782ZM64.187,109.89a5,5,0,1,1,5-5A5.068,5.068,0,0,1,64.187,109.89ZM79.324,85.033A2.777,2.777,0,1,1,82.1,82.256,2.786,2.786,0,0,1,79.324,85.033ZM94.46,109.89a5,5,0,1,1,5-5A4.978,4.978,0,0,1,94.46,109.89Z" transform="translate(7.746 15.923)" fill="#fff"/>
    </g>
  </g>
</svg>
