<svg xmlns="http://www.w3.org/2000/svg" width="90.413" height="118.879" viewBox="0 0 90.413 118.879">
  <g id="Group_64" data-name="Group 64" transform="translate(-61.3)">
    <path id="Path_29" data-name="Path 29" d="M156.4,21.129a3.483,3.483,0,0,0,0-6.966h-8.561a38.325,38.325,0,0,0-59.5,0H79.783a3.483,3.483,0,1,0,0,6.966Z" transform="translate(-11.517)" fill="#fff"/>
    <path id="Path_30" data-name="Path 30" d="M61.3,212.34a45.547,45.547,0,0,0,6.826,23.544,28.205,28.205,0,0,1,16.468-9.158,20.439,20.439,0,0,1-5.881-14.386V194.6c-6.911,3.383-12.72,9.1-17.2,14.744C61.44,210.32,61.3,211.434,61.3,212.34Z" transform="translate(0 -149.417)" fill="#fff"/>
    <path id="Path_31" data-name="Path 31" d="M374.04,250.328l-5.294-3.134c-.107-.054-4.939-2.977-11.981-6.564v7.052a20.678,20.678,0,0,1-5.908,14.379,28.207,28.207,0,0,1,16.5,9.164A45.967,45.967,0,0,0,374.04,250.328Z" transform="translate(-222.327 -184.758)" fill="#fff"/>
    <path id="Path_32" data-name="Path 32" d="M184.734,192.469a3.482,3.482,0,0,1,4.925,0,7.918,7.918,0,0,0,10.292.731l4.521-3.389C194.121,185.232,182.162,181,173.2,181h-1.045a23.211,23.211,0,0,0-5.851.7v5.4l8.139,6.105A7.921,7.921,0,0,0,184.734,192.469Z" transform="translate(-80.621 -138.974)" fill="#fff"/>
    <path id="Path_33" data-name="Path 33" d="M166.3,250.835a13.931,13.931,0,0,0,13.931,13.931h13.931a13.931,13.931,0,0,0,13.931-13.931v-6.1l-3.962,2.971a14.771,14.771,0,0,1-8.884,2.945,14.956,14.956,0,0,1-8.051-2.34,14.934,14.934,0,0,1-16.934-.605l-3.962-2.972Z" transform="translate(-80.621 -187.913)" fill="#fff"/>
    <path id="Path_34" data-name="Path 34" d="M91.3,381.9v10.681a3.481,3.481,0,0,0,3.483,3.483h31.345V361H112.2A20.92,20.92,0,0,0,91.3,381.9Z" transform="translate(-23.034 -277.181)" fill="#fff"/>
    <path id="Path_35" data-name="Path 35" d="M306.128,392.577V381.9a20.92,20.92,0,0,0-20.9-20.9H271.3v35.06h31.345A3.481,3.481,0,0,0,306.128,392.577Z" transform="translate(-161.241 -277.181)" fill="#fff"/>
    <path id="Path_36" data-name="Path 36" d="M100.1,127.97c21.448,0,55.864,20.516,57.316,21.39l1.389.834c-.879-7.429-3.351-17.187-7.42-29.193H76.552c-2.424,7.156-4.328,13.579-5.626,19.131,7.588-7.078,17.35-12.665,29.178-12.163Z" transform="translate(-7.391 -92.906)" fill="#fff"/>
  </g>
</svg>
