<svg id="noun_Sewing_Machine_2599926" data-name="noun_Sewing Machine_2599926" xmlns="http://www.w3.org/2000/svg" width="116" height="104.047" viewBox="0 0 116 104.047">
  <g id="Group_57" data-name="Group 57">
    <path id="Path_12" data-name="Path 12" d="M101.629,135.907v53.535h7.992a102.548,102.548,0,0,1,11.086-9.838V144.215A70.766,70.766,0,0,1,101.629,135.907Zm70.984-5.395c0-4.83,7.339-4.83,7.339,0v10.895c1.065-.06,2.048-.105,2.929-.132,11.863-.355,17.046,6.757,17.046,18.606V213.8h8.913v17.139h-116v-19.2h74.173s.86-23.209.86-32.135-5.474-8.129-5.474-8.129h-24c-3.5,0-7.469,1.6-11.307,3.842V145.2l1.413.039c9.719,0,29.985-2.167,44.109-3.308V130.512ZM109.521,194.1v7.834c0,6.342-7.8,6.342-7.8,0V194.1h7.8Zm73.976-9.743a12.044,12.044,0,1,1-12.042,12.046A12.052,12.052,0,0,1,183.5,184.361Zm0,5.405a6.641,6.641,0,1,0,6.637,6.641A6.636,6.636,0,0,0,183.5,189.766Zm0-33.454a12.047,12.047,0,1,1-12.042,12.048A12.072,12.072,0,0,1,183.5,156.312Zm0,5.412a6.636,6.636,0,1,0,6.637,6.635A6.618,6.618,0,0,0,183.5,161.724Z" transform="translate(-92.84 -126.89)" fill="#fff" fill-rule="evenodd"/>
  </g>
</svg>
