<svg xmlns="http://www.w3.org/2000/svg" width="74.451" height="114.832" viewBox="0 0 74.451 114.832">
  <g id="noun_Scarf_4068803" transform="translate(-107.166 -32)">
    <path id="Path_13" data-name="Path 13" d="M256.387,183.326A94.3,94.3,0,0,1,232,210.24v36.608h43.454C274.895,237.458,271.675,198.372,256.387,183.326Z" transform="translate(-93.939 -113.875)" fill="#fff"/>
    <path id="Path_14" data-name="Path 14" d="M217.139,32H202.574a65.92,65.92,0,0,0,7.271,15.128A66.323,66.323,0,0,0,217.139,32Z" transform="translate(-71.796)" fill="#fff"/>
    <path id="Path_15" data-name="Path 15" d="M203.717,47.575a5.9,5.9,0,0,0-.977-5.609c-4.534-5.534-10.505-8.632-18.218-9.441-2.158,7.461-6.479,15.581-12.864,24.164A156.117,156.117,0,0,1,155.6,74.87a5.883,5.883,0,0,0-.513,7.937,30.815,30.815,0,0,0,15.69,10.778C191.529,78.39,200.713,56.4,203.717,47.575Z" transform="translate(-35.082 -0.395)" fill="#fff"/>
    <path id="Path_16" data-name="Path 16" d="M179.948,289.061a33.747,33.747,0,0,1-4.241-1.633c-5.828,9.621-7.417,21.124-7.616,29.84h11.857Z" transform="translate(-45.847 -192.214)" fill="#fff"/>
    <path id="Path_17" data-name="Path 17" d="M135.661,51.131a70.294,70.294,0,0,1-8.977-18.606c-7.716.809-13.688,3.907-18.221,9.441a5.908,5.908,0,0,0-.975,5.613,103.614,103.614,0,0,0,11.5,23.242A146.684,146.684,0,0,0,135.661,51.131Z" transform="translate(0 -0.395)" fill="#fff"/>
    <path id="Path_18" data-name="Path 18" d="M233.98,465.9a1.98,1.98,0,0,0,1.98-1.98V456H232v7.919A1.98,1.98,0,0,0,233.98,465.9Z" transform="translate(-93.939 -319.067)" fill="#fff"/>
    <path id="Path_19" data-name="Path 19" d="M168,431.919a1.98,1.98,0,1,0,3.96,0V424H168Z" transform="translate(-45.778 -294.987)" fill="#fff"/>
    <path id="Path_20" data-name="Path 20" d="M201.98,433.9a1.98,1.98,0,0,0,1.98-1.98V424H200v7.919A1.98,1.98,0,0,0,201.98,433.9Z" transform="translate(-69.859 -294.987)" fill="#fff"/>
    <path id="Path_21" data-name="Path 21" d="M267.96,456H264v7.919a1.98,1.98,0,0,0,3.96,0Z" transform="translate(-118.02 -319.067)" fill="#fff"/>
    <path id="Path_22" data-name="Path 22" d="M297.98,465.9a1.98,1.98,0,0,0,1.98-1.98V456H296v7.919A1.98,1.98,0,0,0,297.98,465.9Z" transform="translate(-142.1 -319.067)" fill="#fff"/>
    <path id="Path_23" data-name="Path 23" d="M329.98,465.9a1.98,1.98,0,0,0,1.98-1.98V456H328v7.919A1.98,1.98,0,0,0,329.98,465.9Z" transform="translate(-166.181 -319.067)" fill="#fff"/>
    <path id="Path_24" data-name="Path 24" d="M360,456v7.919a1.98,1.98,0,0,0,3.96,0V456Z" transform="translate(-190.262 -319.067)" fill="#fff"/>
    <path id="Path_25" data-name="Path 25" d="M393.98,465.9a1.98,1.98,0,0,0,1.98-1.98V456H392v7.919A1.98,1.98,0,0,0,393.98,465.9Z" transform="translate(-214.342 -319.067)" fill="#fff"/>
  </g>
</svg>
