<svg xmlns="http://www.w3.org/2000/svg" width="93.981" height="97.414" viewBox="0 0 93.981 97.414">
  <g id="noun_History_3324311" transform="translate(-7.36 -6.46)">
    <g id="Group_83" data-name="Group 83" transform="translate(7.36 6.46)">
      <path id="Path_62" data-name="Path 62" d="M85.436,66.361A21.946,21.946,0,0,1,89,66.666V17.5A11.061,11.061,0,0,0,77.96,6.46H18.4A11.061,11.061,0,0,0,7.36,17.5V81.79A11.061,11.061,0,0,0,18.4,92.832h46a21.539,21.539,0,0,1,21.035-26.47ZM23.418,20.591H72.925a2.861,2.861,0,0,1,0,5.721H23.418a2.861,2.861,0,0,1,0-5.721Zm0,17.469H72.925a2.861,2.861,0,0,1,0,5.721H23.418a2.861,2.861,0,0,1,0-5.721Zm0,17.45H72.925a2.861,2.861,0,0,1,0,5.721H23.418a2.861,2.861,0,0,1,0-5.721ZM59.061,78.7H23.418a2.861,2.861,0,1,1,0-5.721H59.061a2.861,2.861,0,0,1,0,5.721Zm26.375-6.618a15.9,15.9,0,1,0,15.905,15.886A15.9,15.9,0,0,0,85.436,72.083Zm7.59,18.747h-7.59a2.861,2.861,0,0,1-2.861-2.861V79.253a2.861,2.861,0,0,1,5.721,0v5.855h4.73a2.861,2.861,0,0,1,0,5.721Z" transform="translate(-7.36 -6.46)" fill="#fff"/>
    </g>
  </g>
</svg>
