<svg xmlns="http://www.w3.org/2000/svg" width="107.228" height="91.988" viewBox="0 0 107.228 91.988">
  <g id="noun_gallery_4379272" transform="translate(-2 -4)">
    <g id="Group_82" data-name="Group 82" transform="translate(2 4)">
      <path id="Path_56" data-name="Path 56" d="M28.807,7.83A19.17,19.17,0,0,0,9.659,26.977V72.229A11.455,11.455,0,0,1,2,61.443V15.489A11.489,11.489,0,0,1,13.489,4H67.1A11.416,11.416,0,0,1,75.61,7.83Z" transform="translate(-2 -4)" fill="#fff"/>
      <path id="Path_57" data-name="Path 57" d="M32.807,10.83A19.17,19.17,0,0,0,13.659,29.977V75.229A11.455,11.455,0,0,1,6,64.443V18.489A11.489,11.489,0,0,1,17.489,7H71.1a11.416,11.416,0,0,1,8.507,3.83Z" transform="translate(9.318 4.489)" fill="#fff"/>
      <path id="Path_58" data-name="Path 58" d="M38.574,29.6,27.2,44.809c-5.742.213-13.544.417-16.745-5.5L26.64,23.279a3.8,3.8,0,0,1,2.738-1.219,4.115,4.115,0,0,1,2.775,1.12Z" transform="translate(21.914 47.101)" fill="#fff"/>
      <path id="Path_59" data-name="Path 59" d="M47.159,20.549,65.791,38.821v1.852A11.5,11.5,0,0,1,54.3,52.162H17.351l24.1-31.22a3.843,3.843,0,0,1,5.711-.393Z" transform="translate(41.437 39.748)" fill="#fff"/>
      <path id="Path_60" data-name="Path 60" d="M20.83,16.915A1.915,1.915,0,1,1,18.915,15,1.915,1.915,0,0,1,20.83,16.915Z" transform="translate(40.443 27.125)" fill="#fff"/>
      <path id="Path_61" data-name="Path 61" d="M75.1,10H21.489A11.5,11.5,0,0,0,10,21.489V64.362l12.315-12.18a11.4,11.4,0,0,1,8.205-3.656,11.675,11.675,0,0,1,8.325,3.36l5.928,5.931L56.183,43.036a11.563,11.563,0,0,1,17.14-1.184L86.591,54.865V21.489A11.5,11.5,0,0,0,75.1,10ZM38.722,40.637A9.574,9.574,0,1,1,48.3,31.063,9.574,9.574,0,0,1,38.722,40.637Z" transform="translate(20.637 12.977)" fill="#fff"/>
    </g>
  </g>
</svg>
